<!-- Generated by IcoMoon.io -->
<svg version="1.1" xmlns="http://www.w3.org/2000/svg" width="24" height="24" viewBox="0 0 24 24">
<title>Ubuntu</title>
<path d="M17.672 2.166c-0.633 0.070-1.275 0.539-1.552 1.134-0.548 1.172 0.028 2.512 1.242 2.897 0.441 0.141 1.083 0.103 1.495-0.094 1.336-0.623 1.622-2.4 0.553-3.398-0.455-0.427-1.064-0.614-1.739-0.539z"></path>
<path d="M13.008 3.83c-1.003 0.117-1.706 0.286-2.409 0.581-0.262 0.108-0.483 0.211-0.497 0.225-0.019 0.033 1.477 2.695 1.556 2.775 0.023 0.023 0.22-0.023 0.441-0.098 2.198-0.759 4.603 0.188 5.728 2.25 0.202 0.361 0.436 1.050 0.483 1.397 0.019 0.136 0.047 0.258 0.070 0.272 0.037 0.023 3.192-0.070 3.22-0.098 0.033-0.028-0.141-1.022-0.248-1.42-0.295-1.102-0.919-2.302-1.594-3.070l-0.117-0.131-0.192 0.127c-0.384 0.239-0.778 0.356-1.303 0.384-0.586 0.028-0.881-0.028-1.388-0.272-0.923-0.441-1.528-1.355-1.603-2.414-0.033-0.455 0.028-0.412-0.717-0.492-0.427-0.042-1.13-0.052-1.43-0.014z"></path>
<path d="M8.672 5.541c-1.134 0.905-2.067 2.222-2.555 3.605l-0.127 0.356 0.417 0.417c0.473 0.473 0.67 0.802 0.811 1.359 0.248 0.961-0.023 1.917-0.755 2.658-0.417 0.422-0.403 0.347-0.155 0.961 0.225 0.544 0.586 1.167 0.984 1.697 0.347 0.464 1.191 1.308 1.58 1.584l0.216 0.155 0.066-0.108c0.098-0.155 1.533-2.714 1.533-2.733 0-0.009-0.141-0.15-0.309-0.314-1.959-1.88-1.941-4.936 0.042-6.844l0.323-0.309-0.848-1.364c-0.473-0.75-0.867-1.364-0.886-1.364-0.019 0.005-0.169 0.112-0.337 0.244z"></path>
<path d="M4.158 9.891c-0.572 0.070-1.181 0.492-1.5 1.031-0.394 0.68-0.333 1.641 0.145 2.278 0.38 0.497 0.9 0.769 1.547 0.806 1.102 0.061 1.987-0.642 2.175-1.725 0.239-1.387-0.928-2.564-2.367-2.391z"></path>
<path d="M18.356 12.347c-0.113 0.614-0.253 1.064-0.473 1.514-0.478 0.97-1.191 1.673-2.156 2.147-0.684 0.337-1.12 0.45-1.852 0.478-0.689 0.028-1.111-0.028-1.72-0.23-0.244-0.080-0.445-0.136-0.455-0.127-0.042 0.056-1.575 2.766-1.575 2.784 0 0.098 1.219 0.53 1.922 0.684 0.769 0.169 2.461 0.173 3.131 0.009 0.075-0.019 0.103-0.061 0.103-0.15 0-0.216 0.131-0.628 0.314-0.984 0.333-0.661 0.98-1.186 1.739-1.411 0.459-0.141 1.247-0.117 1.673 0.042 0.469 0.178 0.436 0.188 0.769-0.216 0.998-1.209 1.65-2.752 1.805-4.266l0.033-0.286-0.248-0.028c-0.136-0.014-0.867-0.033-1.622-0.042-1.369-0.019-1.369-0.019-1.388 0.080z"></path>
<path d="M17.461 17.798c-0.572 0.206-1.008 0.595-1.256 1.13-0.253 0.539-0.234 1.256 0.042 1.805 0.356 0.712 1.017 1.111 1.847 1.111 1.2 0 2.063-0.862 2.063-2.067 0-0.834-0.441-1.523-1.209-1.884-0.277-0.131-0.37-0.15-0.783-0.159-0.361-0.014-0.525 0.005-0.703 0.066z"></path>
</svg>
